:SAMPLES-PER-SECOND 30
:FULLY-SPECIFIED
:DEGREES
176
root  -56.1804 41.195 -36.4234 176.55 3.40323 -179.864
RightUpLeg  -4.35073 -7.76115 -6.5504
RightLeg  6.30467 -2.15027 1.60256
RightFoot  3.07085 -0.00818382 0.228375
RightToes  1.16414e-010 0 -3.6325e-017
Spine  8.24872 -0.272996 0.032261
Spine1  -1.35152 -0.220417 -0.522117
HEad  -11.8754 3.28502 -0.695294
LeftShoulder1  0.0384594 3.28474 -8.26555
LeftArm  -15.0687 16.5334 1.72548
LeftForeArm  18.2387 -16.8499 -3.0734
LeftHand  -0.244104 0.0205437 5.32207
RightShoulder  0.444787 -0.230972 5.83342
RightArm  -11.9292 -14.5855 -0.0113203
RightForeArm  -12.7977 6.10883 5.64584
RightHand  -1.95903 6.19009 -19.7662
LeftUpLeg  -2.19872 4.65682 0.952988
LeftLeg  7.51431 12.4102 -2.38093
LeftFoot  -3.30766 -0.187784 2.95838
LeftToes  9.04034e-010 7.59002e-011 -1.12606e-011
177
root  -56.0484 41.256 -36.829 176.689 3.04286 -179.853
RightUpLeg  -3.47295 -7.62786 -6.52558
RightLeg  5.82845 -2.72864 1.687
RightFoot  2.70813 0.0303161 -0.0947136
RightToes  1.16414e-010 0 -3.6325e-017
Spine  7.3192 -0.377207 0.37239
Spine1  -1.1028 -0.250915 -0.812378
HEad  -10.6533 2.9932 -0.45672
LeftShoulder1  -0.0591585 3.98083 -5.59687
LeftArm  -16.3328 15.1479 2.58794
LeftForeArm  19.0378 -15.7122 -2.76912
LeftHand  -0.244104 0.0205437 5.32207
RightShoulder  0.20532 -1.57493 2.52951
RightArm  -13.5683 -11.9094 -1.15385
RightForeArm  -13.7913 4.15209 5.2258
RightHand  -2.11102 6.7923 -20.2312
LeftUpLeg  -1.39029 4.55533 1.09455
LeftLeg  6.85626 12.1032 -2.43934
LeftFoot  -3.46402 -0.179532 2.91037
LeftToes  9.04034e-010 7.59002e-011 -1.12606e-011
178
root  -55.937 41.2892 -37.1999 177.055 3.11962 -179.703
RightUpLeg  -2.9966 -7.50353 -6.33971
RightLeg  5.34141 -2.80527 1.84118
RightFoot  2.34058 0.0149994 0.00821903
RightToes  1.16414e-010 0 -3.6325e-017
Spine  6.26867 -0.368687 1.19444
Spine1  -0.828285 -0.0612308 -1.71841
HEad  -9.56438 2.66292 -0.318327
LeftShoulder1  -0.138628 4.75119 -3.44121
LeftArm  -17.9852 14.1418 1.93876
LeftForeArm  18.644 -15.0973 -2.50588
LeftHand  -0.244104 0.0205437 5.32207
RightShoulder  0.0556809 -2.84365 0.174509
RightArm  -15.787 -9.77715 -0.988548
RightForeArm  -14.6286 3.65459 4.83456
RightHand  -2.22979 7.24897 -20.5902
LeftUpLeg  -1.05738 4.59005 1.39893
LeftLeg  6.66073 12.1056 -2.4055
LeftFoot  -3.7679 -0.154695 2.68048
LeftToes  9.04034e-010 7.59002e-011 -1.12606e-011
179
root  -55.8368 41.3187 -37.525 177.459 3.43117 -179.579
RightUpLeg  -2.65181 -7.42603 -6.15
RightLeg  4.74404 -2.54232 2.0838
RightFoot  2.18794 0.0117478 0.0267816
RightToes  1.16414e-010 0 -3.6325e-017
Spine  5.50466 -0.303544 1.85425
Spine1  -0.69725 0.144339 -2.46579
HEad  -8.96331 2.62278 -0.376524
LeftShoulder1  -0.207782 5.54751 -2.128
LeftArm  -18.3069 13.4373 0.796739
LeftForeArm  16.8002 -14.8251 -2.58301
LeftHand  -0.244104 0.0205437 5.32207
RightShoulder  0.000352097 -3.48753 -1.27055
RightArm  -17.0917 -8.3228 -0.101218
RightForeArm  -15.2583 3.65111 4.71808
RightHand  -2.2397 7.39656 -20.4487
LeftUpLeg  -0.764421 4.6564 1.70792
LeftLeg  6.35717 12.2088 -2.46382
LeftFoot  -3.9693 -0.127023 2.34227
LeftToes  9.04034e-010 7.59002e-011 -1.12606e-011
180
root  -55.7326 41.3575 -37.8033 177.758 3.45719 -179.49
RightUpLeg  -2.29041 -7.28743 -5.92742
RightLeg  4.30668 -2.74097 2.1488
RightFoot  2.1031 0.0285849 -0.120642
RightToes  1.16414e-010 0 -3.6325e-017
Spine  5.19275 -0.318185 2.00187
Spine1  -0.750349 0.150643 -2.58084
HEad  -8.84341 2.73535 -0.496271
LeftShoulder1  -0.217288 5.68308 -1.9332
LeftArm  -17.3258 13.0207 0.179631
LeftForeArm  14.8489 -14.4072 -2.8564
LeftHand  -0.244104 0.0205437 5.32207
RightShoulder  0.00343772 -3.45642 -1.62099
RightArm  -16.9655 -7.18988 0.529634
RightForeArm  -13.8176 3.20778 4.76567
RightHand  -2.0245 6.99486 -19.1141
LeftUpLeg  -0.322134 4.63932 1.95068
LeftLeg  5.74206 12.0659 -2.57177
LeftFoot  -3.96493 -0.110709 2.09068
LeftToes  9.04034e-010 7.59002e-011 -1.12606e-011
181
root  -55.6259 41.3956 -38.0539 177.979 3.113 -179.347
RightUpLeg  -1.81471 -7.09976 -5.64813
RightLeg  3.85752 -3.40391 2.10272
RightFoot  2.01418 0.0416352 -0.237931
RightToes  1.16414e-010 0 -3.6325e-017
Spine  5.04769 -0.390612 1.87379
Spine1  -0.741426 0.02007 -2.27259
HEad  -8.97682 2.77928 -0.558009
LeftShoulder1  -0.16263 5.05004 -2.69532
LeftArm  -16.9434 12.8321 -0.116302
LeftForeArm  14.4051 -13.7269 -2.89512
LeftHand  -0.244104 0.0205437 5.32207
RightShoulder  0.0252049 -3.16932 -1.06141
RightArm  -16.169 -6.29302 0.725653
RightForeArm  -10.7114 2.57513 4.82549
RightHand  -1.69995 6.25958 -17.1317
LeftUpLeg  0.124994 4.63985 2.22666
LeftLeg  5.10929 11.6253 -2.65452
LeftFoot  -3.87069 -0.105494 1.97663
LeftToes  9.04034e-010 7.59002e-011 -1.12606e-011
182
root  -55.5261 41.4223 -38.2983 178.222 2.64595 -179.206
RightUpLeg  -1.26816 -7.04327 -5.45716
RightLeg  3.22203 -3.90879 2.21456
RightFoot  1.92876 0.0489579 -0.30819
RightToes  1.16414e-010 0 -3.6325e-017
Spine  4.79066 -0.444647 1.64427
Spine1  -0.566549 -0.1223 -1.82519
HEad  -9.12862 2.7949 -0.596944
LeftShoulder1  -0.0873744 4.27641 -3.88456
LeftArm  -17.344 12.5835 -0.616474
LeftForeArm  14.7923 -12.7255 -2.70564
LeftHand  -0.244104 0.0205437 5.32207
RightShoulder  0.0467518 -2.93875 -0.17057
RightArm  -15.5604 -5.7832 1.06088
RightForeArm  -8.22527 2.31079 4.87385
RightHand  -1.46435 5.61883 -15.66
LeftUpLeg  0.459091 4.76018 2.53795
LeftLeg  4.61499 11.0067 -2.78211
LeftFoot  -3.77801 -0.102371 1.89489
LeftToes  9.04034e-010 7.59002e-011 -1.12606e-011
